<svg xmlns="http://www.w3.org/2000/svg" width="512" height="512" viewBox="0 0 512 512">
  <defs>
    <linearGradient id="bg" x1="0" y1="0" x2="0" y2="1">
      <stop offset="0" stop-color="#0b1320"/>
      <stop offset="1" stop-color="#1b2d4b"/>
    </linearGradient>
    <radialGradient id="glow" cx="0.5" cy="0.7" r="0.55">
      <stop offset="0" stop-color="#d3ac63" stop-opacity="0.30"/>
      <stop offset="1" stop-color="#d3ac63" stop-opacity="0"/>
    </radialGradient>
  </defs>
  <rect width="512" height="512" fill="url(#bg)"/>
  <rect width="512" height="512" fill="url(#glow)"/>
  <g fill="#dcb768">
    <polygon points="256,90 249.5,210 262.5,210"/>
    <rect x="240" y="205" width="32" height="11" rx="2"/>
    <polygon points="248,216 264,216 277,258 235,258"/>
    <rect x="219" y="253" width="74" height="13" rx="2"/>
    <path d="M222,266 Q196,360 150,421 L212,421 Q232,356 250,266 Z"/>
    <path d="M290,266 Q316,360 362,421 L300,421 Q280,356 262,266 Z"/>
    <rect x="145" y="414" width="70" height="11" rx="2"/>
    <rect x="297" y="414" width="70" height="11" rx="2"/>
    <rect x="150" y="429" width="212" height="6" rx="3"/>
  </g>
  <path d="M200,410 Q256,306 312,410" fill="none" stroke="#dcb768" stroke-width="7" stroke-linecap="round"/>
</svg>
